<svg height="512pt" viewBox="-66 0 512 512" width="512pt" xmlns="http://www.w3.org/2000/svg"><path d="m366.9375 82.464844h-170.476562c-4.144532 0-7.5 3.355468-7.5 7.5 0 4.140625 3.355468 7.5 7.5 7.5h168.019531v257.316406h-349.480469v-257.316406h71.507812c4.140626 0 7.5-3.359375 7.5-7.5 0-4.144532-3.359374-7.5-7.5-7.5h-73.964843c-6.914063 0-12.542969 5.625-12.542969 12.542968v262.230469c0 6.917969 5.628906 12.542969 12.542969 12.542969h37.363281v29.386719c0 4.140625 3.355469 7.5 7.5 7.5 4.140625 0 7.5-3.359375 7.5-7.5v-29.386719h13.335938v127.21875h-13.335938v-67.832031c0-4.144531-3.359375-7.5-7.5-7.5-4.144531 0-7.5 3.355469-7.5 7.5v67.832031h-13.808594c-4.144531 0-7.5 3.355469-7.5 7.5s3.355469 7.5 7.5 7.5h70.953125c4.140625 0 7.5-3.355469 7.5-7.5s-3.359375-7.5-7.5-7.5h-13.808593v-31.421875h192.996093v31.421875h-13.808593c-4.140626 0-7.5 3.355469-7.5 7.5s3.359374 7.5 7.5 7.5h70.953124c4.144532 0 7.5-3.355469 7.5-7.5s-3.355468-7.5-7.5-7.5h-13.808593v-67.832031c0-4.144531-3.355469-7.5-7.5-7.5-4.140625 0-7.5 3.355469-7.5 7.5v67.832031h-13.335938v-127.21875h13.335938v29.386719c0 4.140625 3.359375 7.5 7.5 7.5 4.144531 0 7.5-3.359375 7.5-7.5v-29.386719h37.363281c6.914062 0 12.542969-5.625 12.542969-12.542969v-262.230469c0-6.917968-5.625-12.542968-12.542969-12.542968zm-80.699219 368.113281h-192.996093v-80.796875h192.996093zm0 0"/><path d="m86.390625 110.691406c-.003906 0-.007813.003906-.007813.007813l-31.832031 26.710937c-.6875-.113281-1.382812-.199218-2.082031-.257812-7.558594-.664063-14.925781 1.660156-20.734375 6.535156-5.8125 4.878906-9.378906 11.726562-10.042969 19.285156-.660156 7.5625 1.660156 14.925782 6.539063 20.738282 4.878906 5.8125 11.726562 9.378906 19.285156 10.039062.847656.074219 1.6875.109375 2.523437.109375 4.121094 0 8.140626-.886719 11.828126-2.589844l48.5 57.800781c-4.882813 8.164063-4.34375 18.878907 2.105468 26.566407 3.941406 4.699219 9.480469 7.578125 15.589844 8.113281.683594.0625 1.363281.089844 2.042969.089844 5.382812 0 10.546875-1.871094 14.71875-5.375 3.445312-2.890625 5.824219-6.582032 7.101562-10.578125l102.339844-8.957031c4.128906-.359376 7.179687-4 6.820313-8.125-.363282-4.125-4.015626-7.179688-8.128907-6.816407l-101.371093 8.871094c-.890626-2.394531-2.199219-4.679687-3.929688-6.746094-3.292969-3.921875-7.625-6.464843-12.261719-7.5625l-3.179687-36.328125c-.359375-4.125-4.003906-7.175781-8.125-6.816406-4.128906.363281-7.179688 4-6.820313 8.125l2.976563 33.976562-46.894532-55.886718c2.996094-4.332032 4.675782-9.351563 4.984376-14.46875l159.132812-133.535156c3.898438-3.265626 6.289062-7.855469 6.730469-12.921876.445312-5.070312-1.113281-10.003906-4.382813-13.894531-3.621094-4.320312-8.9375-6.800781-14.585937-6.800781-4.476563 0-8.824219 1.585938-12.230469 4.453125l-126.597656 106.226563c-.003906.003906-.007813.007812-.011719.011718zm3.898437 16.3125 5.1875 6.183594-21.089843 17.699219c-.769531-1.28125-1.644531-2.515625-2.632813-3.695313-.769531-.917968-1.589844-1.777344-2.449218-2.582031zm-41.464843 51.804688c-3.566407-.3125-6.800781-1.996094-9.105469-4.738282-2.300781-2.742187-3.398438-6.21875-3.085938-9.789062.3125-3.566406 1.996094-6.796875 4.738282-9.101562 2.4375-2.042969 5.453125-3.136719 8.597656-3.136719.394531 0 .792969.015625 1.191406.050781 3.566406.3125 6.800782 1.996094 9.101563 4.738281 4.753906 5.664063 4.011719 14.136719-1.652344 18.890625-2.742187 2.300782-6.222656 3.402344-9.785156 3.085938zm86.355469 88.167968c-3.359376 2.820313-8.394532 2.382813-11.214844-.980468-2.824219-3.363282-2.382813-8.394532.980468-11.21875 1.230469-1.035156 2.6875-1.628906 4.179688-1.804688.074219-.007812.148438-.015625.21875-.023437.238281-.019531.472656-.03125.710938-.03125 2.273437 0 4.535156.964843 6.105468 2.839843 2.824219 3.363282 2.386719 8.394532-.980468 11.21875zm87.472656-251.039062c.917968-.777344 1.910156-.9375 2.578125-.9375 1.199219 0 2.328125.523438 3.097656 1.445312.691406.824219 1.023437 1.867188.929687 2.941407s-.601562 2.042969-1.429687 2.738281l-120.859375 101.421875-5.191406-6.1875zm0 0"/></svg>