<?xml version="1.0" encoding="iso-8859-1"?>
<!-- Generator: Adobe Illustrator 19.0.0, SVG Export Plug-In . SVG Version: 6.00 Build 0)  -->
<svg version="1.1" id="Capa_1" xmlns="http://www.w3.org/2000/svg" xmlns:xlink="http://www.w3.org/1999/xlink" x="0px" y="0px"
	 viewBox="0 0 512 512" style="enable-background:new 0 0 512 512;" xml:space="preserve">
<g>
	<g>
		<path d="M485.979,500.905l-11.709-81.963c-0.76-5.316-5.686-9.006-10.998-8.249c-5.316,0.76-9.009,5.684-8.249,10.998
			l10.123,70.866H310.615l66.158-132.316c2.401-4.802,0.455-10.642-4.347-13.042c-4.8-2.402-10.641-0.455-13.042,4.347
			l-70.506,141.011h-17.147l81.013-162.025h30.237c33.647,0,62.608,25.118,67.366,58.426c0.76,5.316,5.688,9.003,10.998,8.249
			c5.316-0.76,9.009-5.684,8.249-10.998c-2.979-20.847-13.379-39.927-29.289-53.724c-15.908-13.798-36.268-21.396-57.326-21.396
			h-84.182l21.019-15.014c22.943-16.388,36.64-43.003,36.64-71.197v-51.249c14.943-4.244,25.924-18.003,25.924-34.287v-64.81
			c0-33.949-27.621-61.57-61.57-61.57c-9.226,0-17.644,3.523-23.981,9.295C288.163,8.872,273.098,0,256,0h-51.848
			c-41.097,0-74.532,33.434-74.532,74.532v77.772c0,16.284,10.981,30.043,25.924,34.287v38.287
			c0,28.194,13.697,54.809,36.638,71.197l21.019,15.014h-84.181c-21.058,0-41.418,7.598-57.326,21.396
			c-15.908,13.798-26.31,32.877-29.289,53.724L26.021,500.905c-0.398,2.789,0.434,5.615,2.28,7.745
			c1.847,2.128,4.526,3.351,7.344,3.351h440.709c2.818,0,5.497-1.222,7.344-3.352C485.544,506.52,486.377,503.694,485.979,500.905z
			 M256,362.937c-8.935,0-16.202-7.268-16.202-16.203c0-8.935,7.268-16.203,16.202-16.203c8.935,0,16.203,7.268,16.203,16.203
			C272.203,355.669,264.935,362.937,256,362.937z M331.005,330.532l-44.714,89.426l-5.907-47.258
			c6.924-6.507,11.261-15.736,11.261-25.966c0-5.833-1.417-11.338-3.912-16.203H331.005z M155.544,152.304v12.931
			c-3.926-2.959-6.481-7.646-6.481-12.931V74.532c0-30.376,24.712-55.089,55.089-55.089H256c16.082,0,29.165,13.083,29.165,29.165
			c0,5.369,4.353,9.721,9.722,9.721c5.369,0,9.721-4.353,9.721-9.721c0-8.935,7.268-16.203,16.203-16.203
			c23.228,0,42.127,18.899,42.127,42.127v64.81c0,5.285-2.555,9.972-6.481,12.931v-12.931c0-19.656-15.99-35.646-35.646-35.646
			c-8.935,0-16.203-7.268-16.203-16.203c0-5.369-4.353-9.721-9.721-9.721c-5.369,0-9.722,4.353-9.722,9.721
			c0,8.935-7.268,16.203-16.203,16.203h-64.81C177.349,103.696,155.544,125.501,155.544,152.304z M203.483,280.253
			c-17.842-12.746-28.496-33.446-28.496-55.375v-72.574c0-16.082,13.083-29.165,29.165-29.165h64.81
			c10.205,0,19.42-4.31,25.924-11.204c6.504,6.894,15.719,11.204,25.924,11.204c8.935,0,16.203,7.268,16.203,16.203v85.536
			c0,21.928-10.653,42.63-28.497,55.375l-35.564,25.403c-10.14,7.243-23.763,7.243-33.903,0L203.483,280.253z M224.266,330.532
			c-2.494,4.865-3.912,10.37-3.912,16.203c0,10.228,4.337,19.459,11.261,25.966l-5.907,47.258l-44.714-89.426H224.266z
			 M46.855,492.557l14.799-103.599c4.358-30.505,29.021-54.126,58.986-57.888l80.744,161.487H46.855z M223.122,492.557
			l-81.013-162.025h17.148l81.013,162.025H223.122z M256,480.54l-14.616-29.233l8.679-69.431c1.931,0.325,3.913,0.504,5.937,0.504
			c2.023,0,4.005-0.179,5.938-0.504l8.679,69.431L256,480.54z"/>
	</g>
</g>
<g>
</g>
<g>
</g>
<g>
</g>
<g>
</g>
<g>
</g>
<g>
</g>
<g>
</g>
<g>
</g>
<g>
</g>
<g>
</g>
<g>
</g>
<g>
</g>
<g>
</g>
<g>
</g>
<g>
</g>
</svg>
