<?xml version="1.0"?>
<svg xmlns="http://www.w3.org/2000/svg" id="outline" viewBox="0 0 512 512" width="512" height="512"><circle cx="232" cy="264" r="8"/><path d="M312,238.87939V216a7.99836,7.99836,0,0,0-1.34375-4.4375L296,189.57812V168h40a24.02718,24.02718,0,0,0,24-24V104a40.068,40.068,0,0,0-32-39.19507V32a8.00008,8.00008,0,0,0-8-8H280v.022a39.91239,39.91239,0,0,0-48,0V24H192a8.00008,8.00008,0,0,0-8,8V64.80493A40.068,40.068,0,0,0,152,104v40a24.02718,24.02718,0,0,0,24,24h40v21.57812L201.34375,211.5625A7.99836,7.99836,0,0,0,200,216v22.87939L136.30762,461.80273a7.99812,7.99812,0,0,0,.3457,5.36329l10.34229,24a8.00007,8.00007,0,0,0,13.00341,2.49121l16-16a8.022,8.022,0,0,0,1.64942-2.39746L225.8255,367.271l6.18817,105.19873a8.0012,8.0012,0,0,0,2.32959,5.1875l16,16a8.00063,8.00063,0,0,0,11.31348,0l16-16a8.0012,8.0012,0,0,0,2.32959-5.1875L286.1745,367.271l48.17706,107.98877a8.022,8.022,0,0,0,1.64942,2.39746l16,16a7.99972,7.99972,0,0,0,13.00341-2.49121l10.34229-24a7.99812,7.99812,0,0,0,.3457-5.36329Zm-48,39.41749V248h33.96552l48.00006,168H325.43414Zm-16,0L186.56586,416H166.03442l48.00006-168H248ZM280,184H232V168h48Zm64-80v40a8.00917,8.00917,0,0,1-8,8h-8V81.37109A24.04167,24.04167,0,0,1,344,104ZM256,32a24,24,0,1,1-24,24A24.0275,24.0275,0,0,1,256,32ZM232,96h48v24H232Zm-64,48V104a24.04166,24.04166,0,0,1,16-22.62891V152h-8A8.00917,8.00917,0,0,1,168,144Zm32-72V40h19.35A39.75984,39.75984,0,0,0,216,56v72a8.00008,8.00008,0,0,0,8,8h64a8.00008,8.00008,0,0,0,8-8V56a39.75984,39.75984,0,0,0-3.35-16H312V152H200Zm16,146.42188L228.28125,200h55.4375L296,218.42188V232H216ZM163.63916,467.38965l-6.61621,6.61621-4.54688-10.55176L161.463,432h17.96478ZM256,476.68652l-8.19238-8.19238L245.661,432h20.6781l-2.14667,36.49414Zm16.01367-141.15625L267.28021,416H244.71979l-4.73346-80.46973h-.00018L256,299.63525l16.01385,35.895Zm82.96338,138.47559-6.61621-6.61621L332.57227,432h17.96478l8.98688,31.4541Z"/><circle cx="280" cy="264" r="8"/></svg>
