<svg id="Capa_1" enable-background="new 0 0 512.305 512.305" height="512" viewBox="0 0 512.305 512.305" width="512" xmlns="http://www.w3.org/2000/svg"><g><path d="m141.305 329c0-38.682-31.694-70.152-70.652-70.152s-70.653 31.47-70.653 70.152c0 21.033 9.383 39.919 24.196 52.788-9.912 8.689-16.196 21.477-16.196 35.724v79.641c0 8.284 6.716 15 15 15h93.11c8.284 0 15-6.716 15-15v-79.641c0-13.727-5.831-26.103-15.122-34.76 15.463-12.88 25.317-32.191 25.317-53.752zm-70.653-40.152c22.416 0 40.652 18.012 40.652 40.152s-18.236 40.152-40.652 40.152-40.652-18.012-40.652-40.152 18.236-40.152 40.652-40.152zm30.458 193.304h-63.11v-64.641c0-9.572 7.626-17.359 17-17.359h29.11c9.374 0 17 7.788 17 17.359z"/><path d="m486.988 382.751c15.463-12.879 25.316-32.191 25.316-53.751 0-38.682-31.694-70.152-70.652-70.152s-70.652 31.47-70.652 70.152c0 21.033 9.383 39.919 24.196 52.788-9.912 8.689-16.196 21.477-16.196 35.724v64.641c0 16.542 13.458 30 30 30h63.11c16.542 0 30-13.458 30-30v-64.641c0-13.727-5.831-26.103-15.122-34.761zm-45.336-93.903c22.416 0 40.652 18.012 40.652 40.152s-18.236 40.152-40.652 40.152-40.652-18.012-40.652-40.152 18.236-40.152 40.652-40.152zm30.458 193.304h-63.11v-64.641c0-9.572 7.626-17.359 17-17.359h29.11c9.374 0 17 7.788 17 17.359l.019 64.64s-.006.001-.019.001z"/><path d="m296 482.152h-25v-35h2c16.542 0 30-13.458 30-30v-58c0-16.542-13.458-30-30-30h-34c-16.542 0-30 13.458-30 30v58c0 16.542 13.458 30 30 30h2v35h-25c-8.284 0-15 6.716-15 15s6.716 15 15 15h80c8.284 0 15-6.716 15-15s-6.716-15-15-15zm-57-123h34l.003 58h-34.003z"/><path d="m389.697 232.472-11.927-39.762v-79.798c0-24.813-20.187-45-45-45h-13.77v-22.76c0-24.813-20.187-45-45-45h-149c-24.813 0-45 20.187-45 45v80.798l-11.929 39.763c-3.623 12.076.512 24.821 10.534 32.47 5.398 4.12 11.772 6.202 18.176 6.202 5.485 0 10.991-1.527 15.924-4.61h.001l26.063-16.29v21.427c0 24.813 20.187 45 45 45h134.698l26.59 16.619c4.938 3.086 10.446 4.616 15.935 4.615 6.401 0 12.775-2.082 18.172-6.2 10.024-7.648 14.158-20.395 10.533-32.474zm-262.647-77.039-30.244 18.903 12.562-41.873c.42-1.398.633-2.85.633-4.31v-83c0-8.271 6.729-15 15-15h149c8.271 0 15 6.729 15 15v93c0 8.271-6.729 15-15 15h-139.001c-2.812-.001-5.566.789-7.95 2.28zm233.91 85.66-30.24-18.9c-2.384-1.49-5.139-2.28-7.95-2.28h-139c-8.271 0-15-6.729-15-15v-21.76h105.23c24.813 0 45-20.187 45-45v-40.24h13.77c8.271 0 15 6.729 15 15v82c0 1.46.213 2.912.633 4.31l12.561 41.872s0 .001.001.001c-.003-.002-.004-.003-.005-.003z"/></g></svg>