<svg id="Capa_1" enable-background="new 0 0 512.381 512.381" height="512" viewBox="0 0 512.381 512.381" width="512" xmlns="http://www.w3.org/2000/svg"><g><path d="m376.938 313.151c3.12 0 6.033-1.962 7.097-5.079 1.338-3.92-.754-8.183-4.675-9.521l-13.486-4.604c-6.84-2.335-11.437-8.761-11.437-15.989v-22.473c0-4.142-3.358-7.5-7.5-7.5s-7.5 3.358-7.5 7.5v22.473c0 13.646 8.677 25.777 21.591 30.185l13.486 4.604c.803.274 1.62.404 2.424.404z"/><path d="m299.189 426.637c-28.045 7.191-57.95 7.191-85.997 0-1.317-.582-2.817-.792-4.343-.52-4.078.728-6.793 4.623-6.066 8.701l.019.104c.513 2.875 2.648 5.191 5.473 5.935 15.612 4.113 31.733 6.198 47.916 6.198s32.304-2.085 47.916-6.198c2.824-.744 4.96-3.06 5.473-5.935l.019-.104c.728-4.078-1.988-7.973-6.066-8.701-1.528-.273-3.026-.062-4.344.52z"/><path d="m315.17 397.73c-1.431-3.887-5.742-5.877-9.63-4.446-15.806 5.82-32.41 8.771-49.35 8.771s-33.544-2.951-49.35-8.771c-3.887-1.433-8.199.56-9.63 4.446-1.431 3.887.56 8.198 4.446 9.63 17.471 6.433 35.819 9.695 54.534 9.695s37.062-3.262 54.534-9.695c3.887-1.432 5.878-5.743 4.446-9.63z"/><path d="m254.464 387.031h.102c4.096 0 7.443-3.292 7.498-7.4.055-4.142-3.258-7.544-7.4-7.599-17.178-.229-33.634-4.216-48.913-11.852-3.287-1.642-7.022-2.042-10.522-1.127l-23.95 6.264c-4.007 1.048-6.406 5.146-5.358 9.154 1.048 4.007 5.145 6.406 9.154 5.358l23.971-6.23c17.316 8.653 35.961 13.172 55.418 13.432z"/><path d="m339.597 371.206c.841-4.056-1.765-8.025-5.821-8.866l-17.176-3.562c-3.274-.678-6.75-.213-9.788 1.311-8.264 4.149-17.051 7.271-26.118 9.282-4.044.896-6.595 4.902-5.699 8.946.775 3.497 3.875 5.878 7.315 5.878.538 0 1.083-.058 1.63-.179 10.273-2.278 20.232-5.817 29.613-10.549l17.177 3.562c4.054.84 8.026-1.766 8.867-5.823z"/><path d="m369.625 339.857c1.011-4.017-1.425-8.093-5.442-9.104l-37.944-9.554c-6.969-1.755-14.22-.298-19.893 4-14.556 11.027-31.899 16.856-50.156 16.856-17.87 0-34.916-5.606-49.296-16.213-6.294-4.643-14.24-6.319-21.792-4.595l-41.547 9.467c-4.039.92-6.567 4.94-5.646 8.979.92 4.039 4.942 6.567 8.979 5.646l41.548-9.467c3.296-.752 6.779-.007 9.556 2.042 16.978 12.523 37.103 19.142 58.2 19.142 21.554 0 42.03-6.881 59.214-19.9 2.025-1.534 4.638-2.049 7.172-1.41l37.944 9.554c4.016 1.01 8.092-1.426 9.103-5.443z"/><path d="m263.69 262.825v-42.042c0-4.142-3.358-7.5-7.5-7.5s-7.5 3.358-7.5 7.5v42.042c0 4.142 3.358 7.5 7.5 7.5s7.5-3.358 7.5-7.5z"/><path d="m108.047 126.502c1.956 0 3.911-.761 5.381-2.275 37.814-38.942 88.514-60.389 142.762-60.389 53.013 0 102.892 20.609 140.448 58.032 2.934 2.922 7.683 2.914 10.607-.019 2.923-2.934 2.915-7.683-.019-10.607-40.387-40.243-94.026-62.406-151.036-62.406-58.337 0-112.86 23.063-153.523 64.939-2.885 2.972-2.815 7.72.156 10.605 1.457 1.416 3.342 2.12 5.224 2.12z"/><path d="m7.5 69.928c4.142 0 7.5-3.358 7.5-7.5v-45.512c0-.688.559-1.247 1.247-1.247h45.512c4.142 0 7.5-3.358 7.5-7.5s-3.358-7.5-7.5-7.5h-45.512c-8.959 0-16.247 7.289-16.247 16.247v45.512c0 4.142 3.358 7.5 7.5 7.5z"/><path d="m496.134.669h-45.512c-4.142 0-7.5 3.358-7.5 7.5s3.358 7.5 7.5 7.5h45.512c.688 0 1.247.559 1.247 1.247v45.512c0 4.142 3.358 7.5 7.5 7.5s7.5-3.358 7.5-7.5v-45.512c0-8.958-7.288-16.247-16.247-16.247z"/><path d="m61.759 496.711h-45.512c-.688 0-1.247-.559-1.247-1.247v-45.512c0-4.142-3.358-7.5-7.5-7.5s-7.5 3.358-7.5 7.5v45.512c0 8.958 7.288 16.247 16.247 16.247h45.512c4.142 0 7.5-3.358 7.5-7.5s-3.358-7.5-7.5-7.5z"/><path d="m504.881 442.453c-4.142 0-7.5 3.358-7.5 7.5v45.512c0 .688-.559 1.247-1.247 1.247h-45.512c-4.142 0-7.5 3.358-7.5 7.5s3.358 7.5 7.5 7.5h45.512c8.958 0 16.247-7.288 16.247-16.247v-45.512c0-4.142-3.358-7.5-7.5-7.5z"/><path d="m504.881 170.778c-4.142 0-7.5 3.358-7.5 7.5v9.406h-40.744c-6.806-18.131-16.118-35.365-27.821-51.315-2.451-3.339-7.144-4.06-10.484-1.61-3.339 2.45-4.06 7.144-1.61 10.484 9.741 13.276 17.695 27.51 23.797 42.441h-62.145c-16.538-51.714-65.054-89.266-122.184-89.266-13.234 0-26.303 2.025-38.844 6.02-3.947 1.257-6.127 5.476-4.87 9.423 1.258 3.946 5.474 6.126 9.423 4.87 11.067-3.525 22.604-5.313 34.292-5.313 48.753 0 90.409 30.968 106.332 74.266h-16.463c-5.052-11.51-12.305-22.07-21.557-31.159-18.913-18.581-43.799-28.552-70.077-28.091-25.835.458-50.075 10.89-68.254 29.374-8.636 8.78-15.427 18.9-20.184 29.876h-16.023c8.895-24.037 25.829-44.893 48.425-58.364 3.558-2.121 4.722-6.725 2.601-10.283-2.121-3.557-6.724-4.723-10.283-2.601-18.759 11.184-34.478 27.07-45.456 45.942-4.666 8.02-8.409 16.515-11.217 25.306h-62.168c5.672-13.888 12.945-27.173 21.76-39.635 2.392-3.381 1.59-8.062-1.792-10.454-3.381-2.393-8.063-1.591-10.454 1.792-10.675 15.09-19.245 31.302-25.622 48.297h-40.759v-9.406c0-4.142-3.358-7.5-7.5-7.5s-7.5 3.358-7.5 7.5v33.813c0 4.142 3.358 7.5 7.5 7.5s7.5-3.358 7.5-7.5v-9.407h35.759c-5.652 19.35-8.556 39.548-8.556 60.141 0 57.158 22.259 110.895 62.675 151.312 40.417 40.417 94.154 62.676 151.312 62.676 62.309 0 121.403-27.093 162.129-74.331 2.705-3.137 2.354-7.873-.783-10.578-3.138-2.705-7.874-2.354-10.578.783-37.875 43.931-92.828 69.126-150.769 69.126-109.722 0-198.987-89.265-198.987-198.987 0-20.651 3.135-40.875 9.233-60.141h63.787c-1.501 7.875-2.279 15.904-2.279 23.981v32.144c0 4.142 3.358 7.5 7.5 7.5s7.5-3.358 7.5-7.5v-32.144c0-8.136.908-16.169 2.625-23.981h15.324c-1.945 7.755-2.949 15.796-2.949 23.981v51.293c0 7.229-4.596 13.654-11.437 15.989l-13.486 4.604c-3.92 1.338-6.013 5.601-4.675 9.521 1.064 3.118 3.977 5.08 7.097 5.079.803 0 1.621-.13 2.423-.404l13.486-4.604c12.914-4.408 21.591-16.538 21.591-30.185v-51.293c0-8.233 1.197-16.293 3.507-23.981h15.854c-2.812 7.465-4.361 15.544-4.361 23.981v32.144c0 14.762 4.659 28.825 13.474 40.669 1.472 1.978 3.733 3.022 6.022 3.022 1.557 0 3.127-.483 4.472-1.484 3.323-2.473 4.012-7.171 1.539-10.495-6.874-9.236-10.507-20.202-10.507-31.713v-32.144c0-8.624 2.074-16.768 5.729-23.981h17.754c-5.3 6.565-8.483 14.906-8.483 23.981v8.799c0 4.142 3.358 7.5 7.5 7.5s7.5-3.358 7.5-7.5v-8.799c0-12.818 10.428-23.246 23.247-23.246s23.247 10.428 23.247 23.246v32.144c0 12.818-10.428 23.246-23.247 23.246-11.631 0-21.536-8.685-23.04-20.201-.536-4.107-4.302-7-8.408-6.466-4.107.536-7.002 4.3-6.466 8.408 2.475 18.961 18.774 33.259 37.914 33.259 21.089 0 38.247-17.157 38.247-38.246v-32.144c0-9.074-3.183-17.416-8.483-23.981h17.76c3.739 7.372 5.723 15.559 5.723 23.981v32.144c0 29.36-23.886 53.246-53.247 53.246-8.6 0-16.829-2.011-24.458-5.977-3.677-1.911-8.204-.479-10.114 3.196s-.479 8.203 3.196 10.114c9.65 5.016 20.5 7.667 31.376 7.667 37.631 0 68.247-30.615 68.247-68.246v-32.144c0-8.287-1.511-16.388-4.371-23.981h15.591c2.487 8.06 3.78 16.541 3.78 25.231v.209c0 4.142 3.358 7.5 7.5 7.5s7.5-3.358 7.5-7.5v-.209c0-8.636-1.087-17.096-3.187-25.231h15.623c1.674 7.733 2.564 15.754 2.564 23.981v32.144c0 4.142 3.358 7.5 7.5 7.5s7.5-3.358 7.5-7.5v-32.144c0-8.195-.782-16.209-2.258-23.981h63.768c6.093 19.249 9.231 39.461 9.231 60.141 0 37.242-10.363 73.565-29.969 105.042-2.19 3.516-1.115 8.142 2.401 10.332 1.234.769 2.604 1.135 3.958 1.135 2.504 0 4.952-1.254 6.374-3.536 21.089-33.859 32.236-72.925 32.236-112.973 0-20.621-2.903-40.809-8.548-60.141h35.751v9.407c0 4.142 3.358 7.5 7.5 7.5s7.5-3.358 7.5-7.5v-33.813c.001-4.142-3.357-7.5-7.499-7.5zm-192.708 16.906c-1.837-2.628-3.869-5.141-6.087-7.521-2.826-3.029-7.571-3.194-10.601-.37-2.225 2.075-2.898 5.184-1.984 7.89h-73.531c9.51-8.843 22.241-14.266 36.22-14.266 6.536 0 12.945 1.19 19.048 3.538 3.865 1.486 8.205-.441 9.693-4.307 1.487-3.866-.441-8.206-4.307-9.693-7.828-3.011-16.049-4.538-24.434-4.538-23.146 0-43.624 11.593-55.97 29.266h-17.585c3.737-7.016 8.503-13.535 14.231-19.358 15.408-15.666 35.944-24.506 57.826-24.894 22.239-.392 43.28 8.056 59.299 23.793 6.22 6.11 11.374 13.004 15.385 20.458h-17.203z"/></g></svg>