<?xml version="1.0"?>
<svg xmlns="http://www.w3.org/2000/svg" viewBox="0 0 512 512" width="512" height="512"><g id="Outline"><rect x="152" y="464" width="16" height="32"/><rect x="344" y="472" width="16" height="24"/><path d="M389.79,303.788,344,290.048V288a32.036,32.036,0,0,0-32-32V231.515a75.909,75.909,0,0,0,18.825-36.858c1.229-6.152,2.241-12.4,3.038-18.657H336a32,32,0,0,0,1.951-63.935c3.272-18.22,6.19-55.8-21.163-70.591l-6.832-6.832C299.724,22.1,284.156,16,262.383,16H249.617c-21.773,0-37.341,6.1-47.573,18.642l-7.314,7.315a55.338,55.338,0,0,0-8.876,8.5L198.146,60.7a39.527,39.527,0,0,1,6.654-6.3,7.965,7.965,0,0,0,.857-.743l8-8a8.042,8.042,0,0,0,.591-.66c7.091-8.867,18.33-13,35.369-13h12.766c17.039,0,28.278,4.13,35.369,13a8.042,8.042,0,0,0,.591.66l8,8a7.986,7.986,0,0,0,2.079,1.5C318.7,60.292,323.937,71.911,324,89.689a101.323,101.323,0,0,1-.6,11.061A167.69,167.69,0,0,1,303.53,61.3a8,8,0,0,0-10.382-4.772c-22.914,8.742-51.382,8.742-74.3,0A8,8,0,0,0,208.47,61.3a167.547,167.547,0,0,1-20.059,39.727c-.834-8.49-.64-19.077,3.065-28.8l-14.952-5.7c-6.373,16.728-4.757,34.6-2.688,45.554A32,32,0,0,0,176,176h2.136c.8,6.253,1.81,12.5,3.039,18.655A75.911,75.911,0,0,0,200,231.515V256a32.036,32.036,0,0,0-32,32v2.048l-45.787,13.739A48.3,48.3,0,0,0,88,349.76V496h16V363.816l29.029,11.612,5.942-14.856-34.8-13.92a32.213,32.213,0,0,1,22.638-27.539L168,306.753v78.26a32,32,0,1,0,16,0V301.766l11.948-3.982,28.588,57.176L248,433.174v63.159h16V433.174l23.464-78.214,28.588-57.176L328,301.766v50.913A48.07,48.07,0,0,0,288,400v48a8,8,0,0,0,8,8h16V440h-8V400a32,32,0,0,1,64,0v40h-8v16h16a8,8,0,0,0,8-8V400a48.07,48.07,0,0,0-40-47.321V306.753l41.194,12.361a32.2,32.2,0,0,1,22.723,28.66l-20.355,13.57,8.876,13.312L408,366.948V392h16V349.76A48.3,48.3,0,0,0,389.79,303.788Zm-62.114-19-9.352-3.117-3.117-9.352A16.046,16.046,0,0,1,327.676,284.793ZM256,256a76.537,76.537,0,0,0,40-11.335v16.022l-40,40-40-40v-16.01A75.836,75.836,0,0,0,256,256Zm-23.362,79.388-24-48,2.859-8.576,34.43,34.43-9.966,16.611ZM256,327.549l13.926,23.211-11.583,11.583A8,8,0,0,0,256,367.966a8,8,0,0,0-2.343-5.623L242.074,350.76Zm-.08,41.581a7.96,7.96,0,0,0,.08-1.1,7.96,7.96,0,0,0,.08,1.1l3.361,23.548L256,404.153l-3.441-11.475Zm23.442-33.742-3.322-5.537-9.966-16.611,34.43-34.43,2.859,8.576ZM352,144a16.019,16.019,0,0,1-16,16h-.588c.023-.339.588-32,.588-32A16.019,16.019,0,0,1,352,144Zm-192,0a16.019,16.019,0,0,1,16-16v14.42c0,4.7.569,17.223.593,17.58H176A16.019,16.019,0,0,1,160,144Zm33.232,23.226c-.309-3.179-1.232-44.368-1.232-44.368a179.635,179.635,0,0,0,28.754-48.81,127.015,127.015,0,0,0,70.492,0A179.635,179.635,0,0,0,320,122.858c0,22.876-.367,46.151-4.865,68.666A60.865,60.865,0,0,1,256,240a59.973,59.973,0,0,1-42.379-17.4C198.687,207.856,195.257,187.489,193.232,167.226Zm3.561,105.1-3.117,9.352-9.352,3.117A16.046,16.046,0,0,1,196.793,272.324ZM192,416a16,16,0,1,1-24-13.835V416h16V402.165A16,16,0,0,1,192,416Z"/><rect x="408" y="408" width="16" height="88"/><path d="M232,132a12,12,0,1,0-12,12A12.013,12.013,0,0,0,232,132Z"/><path d="M292,144a12,12,0,1,0-12-12A12.013,12.013,0,0,0,292,144Z"/><path d="M282.78,187.242l-5.56-15A64.985,64.985,0,0,1,254.891,176H240v16h14.891A81.13,81.13,0,0,0,282.78,187.242Z"/><rect x="216" y="448" width="16" height="16"/></g></svg>
