<svg id="Layer_5" enable-background="new 0 0 64 64" height="512" viewBox="0 0 64 64" width="512" xmlns="http://www.w3.org/2000/svg"><g><path d="m33 13h-2v2c-1.654 0-3 1.346-3 3s1.346 3 3 3h2c.551 0 1 .449 1 1s-.449 1-1 1h-3v-1h-2v3h3v2h2v-2c1.654 0 3-1.346 3-3s-1.346-3-3-3h-2c-.551 0-1-.449-1-1s.449-1 1-1h3v1h2v-3h-3z"/><path d="m63 28.565-28.586-26.615c-1.315-1.225-3.512-1.225-4.827 0l-28.587 26.615v2.435h2v28h4v3.477l6-2.399 6 2.399v-3.477h13 29v-28h2zm-32.05-25.151c.572-.533 1.528-.533 2.101 0l27.481 25.586h-2.934l-25.598-23.832-25.598 23.832h-2.934zm-7.95 16.586c0-1.966.623-3.829 1.799-5.395l2.33-2.169c2.905-1.873 6.837-1.873 9.743.001l2.329 2.168c1.176 1.566 1.799 3.429 1.799 5.395 0 4.962-4.038 9-9 9s-9-4.038-9-9zm2.695 9h-16.357l11.857-11.039c-.125.666-.195 1.346-.195 2.039 0 3.72 1.861 7.008 4.695 9zm4.99-19.875 1.315-1.225 1.315 1.224c-.874-.101-1.756-.1-2.63.001zm12.315 10.875c0-.693-.07-1.373-.194-2.039l11.856 11.039h-16.357c2.834-1.992 4.695-5.28 4.695-9zm-24 30.981c2.423-1.827 4-4.72 4-7.981 0-3.273-1.588-6.175-4.026-8h31.109c.422 2.509 2.408 4.494 4.917 4.917v8.166c-2.509.423-4.494 2.408-4.917 4.917h-31.083zm2-7.981c0 4.411-3.589 8-8 8s-8-3.589-8-8 3.589-8 8-8 8 3.589 8 8zm-16 14v-8.026c.569.76 1.242 1.435 2 2.006v6.02zm8 .923-4 1.601v-7.364c1.226.537 2.578.84 4 .84s2.774-.303 4-.841v7.364zm46-.923h-27-13v-2h33v-1c0-2.206 1.794-4 4-4h1v-12h-1c-2.206 0-4-1.794-4-4v-1h-39c-3.273 0-6.175 1.588-8 4.026v-6.026h54z"/><path d="m13 49c3.309 0 6-2.691 6-6s-2.691-6-6-6-6 2.691-6 6 2.691 6 6 6zm0-10c2.206 0 4 1.794 4 4s-1.794 4-4 4-4-1.794-4-4 1.794-4 4-4z"/><path d="m25 37h2v2h-2z"/><path d="m29 37h18v2h-18z"/><path d="m25 41h22v2h-22z"/><path d="m41 51h6v-6h-6zm2-4h2v2h-2z"/><path d="m33 51h6v-6h-6zm2-4h2v2h-2z"/><path d="m25 51h6v-6h-6zm2-4h2v2h-2z"/></g></svg>