<?xml version="1.0" encoding="iso-8859-1"?>
<!-- Generator: Adobe Illustrator 16.0.0, SVG Export Plug-In . SVG Version: 6.00 Build 0)  -->
<!DOCTYPE svg PUBLIC "-//W3C//DTD SVG 1.1//EN" "http://www.w3.org/Graphics/SVG/1.1/DTD/svg11.dtd">
<svg version="1.1" id="Capa_1" xmlns="http://www.w3.org/2000/svg" xmlns:xlink="http://www.w3.org/1999/xlink" x="0px" y="0px"
	 width="43.949px" height="43.949px" viewBox="0 0 43.949 43.949" style="enable-background:new 0 0 43.949 43.949;"
	 xml:space="preserve">
<g>
	<path d="M41.95,4.425H13.686c-1.254-1.396-3.066-2.28-5.09-2.28c-3.779,0-6.842,3.063-6.842,6.841c0,1.99,0.854,3.776,2.211,5.026
		H2.5c-1.381,0-2.5,1.119-2.5,2.5v8.333c0,1.381,1.119,2.5,2.5,2.5c0.111,0,0.219-0.021,0.326-0.033v11.493c0,1.658,1.344,3,3,3
		c1.227,0,2.28-0.735,2.746-1.789c0.465,1.053,1.52,1.789,2.745,1.789c1.658,0,3-1.342,3-3v-5.369h27.632c1.104,0,2-0.896,2-2V6.425
		C43.95,5.318,43.053,4.425,41.95,4.425z M39.95,29.436H14.319V19.012h0.326c0.324,0,0.646-0.063,0.947-0.186l6.554-2.682
		c1.277-0.523,1.892-1.983,1.367-3.261c-0.521-1.277-1.983-1.889-3.26-1.367l-6.1,2.496h-0.929c1.356-1.25,2.211-3.036,2.211-5.026
		c0-0.188-0.014-0.375-0.026-0.561h24.539L39.95,29.436L39.95,29.436z"/>
</g>
<g>
</g>
<g>
</g>
<g>
</g>
<g>
</g>
<g>
</g>
<g>
</g>
<g>
</g>
<g>
</g>
<g>
</g>
<g>
</g>
<g>
</g>
<g>
</g>
<g>
</g>
<g>
</g>
<g>
</g>
</svg>
