<svg height="512" viewBox="0 0 64 64" width="512" xmlns="http://www.w3.org/2000/svg"><g id="Elearning-monitor-screen-online-education"><path d="m59 15h-23.16l-.37-2.11a6 6 0 1 0 -6.94 0l-.37 2.11h-22.16a4 4 0 0 0 -4 4v31a3.009 3.009 0 0 0 3 3h23v3h-6a1 1 0 0 0 -1 1v4a1 1 0 0 0 1 1h20a1 1 0 0 0 1-1v-4a1 1 0 0 0 -1-1h-6v-3h23a3.009 3.009 0 0 0 3-3v-32a3.009 3.009 0 0 0 -3-3zm-31-7a4 4 0 1 1 4 4 4 4 0 0 1 -4-4zm5.81 7h-3.62l.21-1.22a5.928 5.928 0 0 0 3.2 0zm7.19 43v2h-18v-2zm-11-2v-3h4v3zm30-6a1 1 0 0 1 -1 1h-54a1 1 0 0 1 -1-1v-1h56zm0-3h-56v-28a2.006 2.006 0 0 1 2-2h53a1 1 0 0 1 1 1z"/><path d="m32 11a3 3 0 1 0 -3-3 3 3 0 0 0 3 3zm0-4a1 1 0 1 1 -1 1 1 1 0 0 1 1-1z"/><path d="m58 18h-52a1 1 0 0 0 -1 1v26a1 1 0 0 0 1 1h52a1 1 0 0 0 1-1v-26a1 1 0 0 0 -1-1zm-28.59 26h-18.41v-1a3.009 3.009 0 0 1 3-3h1.5l2.7 3.6a1 1 0 0 0 1.6 0l2.7-3.6h2.18l1.77 1.26a.947.947 0 0 0 .78.17.961.961 0 0 0 .65-.46l1.5-2.43 2.17 1.62zm-14.41-16h8v3a4 4 0 0 1 -8 0zm-2.87-2a3.966 3.966 0 0 1 6.35-2.11 1 1 0 0 0 .85.19 3.3 3.3 0 0 1 .67-.08 3.014 3.014 0 0 1 2.83 2zm5.09 12 .24-1.21a5.752 5.752 0 0 0 3.08 0l.24 1.21zm2.78 2-1 1.33-1-1.33zm10.43-3.17.33-.53a1.269 1.269 0 0 1 1.66-.47 1.291 1.291 0 0 1 .55 1.77l-.44.79zm26.57 7.17h-25.3l3.02-5.43a3.227 3.227 0 0 0 .26-2.56 3.076 3.076 0 0 0 -.74-1.26l3.65-7.3-1.78-.9-3.61 7.22a3.263 3.263 0 0 0 -3.45 1.48l-2.31 3.76-1.16-.82a.939.939 0 0 0 -.58-.19h-2.18l-.41-2.07a6 6 0 0 0 2.59-4.93v-4a5 5 0 0 0 -5-5 4.865 4.865 0 0 0 -.65.05 5.855 5.855 0 0 0 -3.35-1.05 6 6 0 0 0 -6 6 1 1 0 0 0 1 1h2v3a6 6 0 0 0 2.59 4.93l-.41 2.07h-1.18a5 5 0 0 0 -5 5v1h-2v-24h50z"/><path d="m39 22h8v2h-8z"/><path d="m49 22h6v2h-6z"/><path d="m39 26h4v2h-4z"/><path d="m45 26h10v2h-10z"/><path d="m39 30h6v2h-6z"/><path d="m47 30h8v2h-8z"/><path d="m39 34h16v2h-16z"/><path d="m39 38h16v2h-16z"/></g></svg>