<svg id="Capa_1" enable-background="new 0 0 512 512" height="512" viewBox="0 0 512 512" width="512" xmlns="http://www.w3.org/2000/svg"><g><circle cx="475" cy="375" r="10"/><path d="m463.873 272.048c-11.424-80.342-67.951-144.323-140.484-168.975 13.932-15.143 22.611-30.292 22.611-49.233 0-29.527-20.947-53.84-50-53.84-19.864 0-32.463 11.342-40 22.295-7.537-10.953-20.136-22.295-40-22.295-29.058 0-50 24.316-50 53.84 0 18.941 8.679 34.09 22.611 49.234-72.519 24.647-129.058 88.618-140.484 168.975-28.359 1.039-48.127 25.192-48.127 53.791 0 32.446 24.975 53.726 62.778 85.935 6.367 5.425 12.95 11.036 19.915 17.119 39.224 51.563 106.398 83.106 173.307 83.106 67.067 0 134.178-31.667 173.307-83.107 6.413-5.6 12.548-10.843 18.78-16.153 4.204-3.581 4.708-9.893 1.126-14.097-3.582-4.203-9.893-4.71-14.097-1.126-4.375 3.728-8.701 7.419-13.119 11.233-4.9-4.23-9.61-8.243-14.211-12.163-16.296-13.883-30.37-25.873-40.102-36.899-10.994-12.444-15.684-22.567-15.684-33.848 0-18.122 11.854-33.84 30-33.84 22.278 0 30.047 26.553 30.356 27.646 1.192 4.344 5.14 7.354 9.645 7.354 4.504 0 8.452-3.012 9.644-7.355 3.523-12.866 14.446-27.645 30.355-27.645 17.103 0 30 14.548 30 33.84 0 3.286-.398 6.406-1.218 9.54-1.398 5.343 1.801 10.808 7.144 12.205 5.339 1.397 10.807-1.801 12.205-7.145 1.24-4.741 1.869-9.653 1.869-14.601 0-28.612-19.78-52.751-48.127-53.791zm-52.954-80.048h-52.433c-9.849-28.312-23.453-52.094-39.473-69.279 36.842 12.996 69.145 37.347 91.906 69.279zm-280.919 80c-19.885 0-32.489 11.364-40.023 22.328-4.968-7.189-12.148-14.538-22.146-18.763 3.097-22.354 10.065-43.681 20.792-63.575h58.761c-5.142 19.166-8.567 39.43-10.223 60.531-2.345-.336-4.732-.521-7.161-.521zm85.69-143.438c4.119 3.564 24.276 20.75 30.31 25.992v37.446h-71.211c10.447-27.51 24.62-49.507 40.901-63.438zm80.621-.001c16.278 13.925 30.45 35.921 40.9 63.439h-71.211v-37.446c6.034-5.242 26.189-22.426 30.311-25.993zm-50.311 83.439v80h-76.723c-3.516-4.805-7.766-8.874-12.589-12.067 1.476-23.931 5.324-46.72 11.458-67.933zm97.856 180h-77.856v-80.01h67.605c-1.057 4.484-1.605 9.13-1.605 13.85 0 15.069 5.429 28.579 17.457 43.27-1.583 7.816-3.461 15.474-5.601 22.89zm-97.856 0h-77.855c-2.141-7.416-4.019-15.074-5.602-22.891 12.028-14.692 17.457-28.201 17.457-43.269 0-4.722-.548-9.368-1.603-13.84h67.603zm0 20v78.996c-28.174-5.598-54.339-34.606-71.198-78.996zm20 78.987v-78.997h71.198c-16.847 44.369-42.992 73.368-71.198 78.997zm89.312-211.053c-4.824 3.194-9.073 7.263-12.586 12.066h-76.726v-80h77.857c6.131 21.186 9.978 43.976 11.455 67.934zm-139.312-259.934c22.278 0 30.047 26.553 30.356 27.646 1.192 4.343 5.14 7.354 9.644 7.354s8.452-3.011 9.644-7.354c.076-.277 7.843-27.646 30.356-27.646 17.103 0 30 14.548 30 33.84 0 23.577-22.882 42.708-55.578 70.564-4.668 3.978-9.446 8.048-14.422 12.346-4.976-4.298-9.754-8.368-14.422-12.346-33.215-28.298-55.578-47.254-55.578-70.564 0-19.292 12.897-33.84 30-33.84zm-23.009 102.719c-16.023 17.189-29.628 40.972-39.476 69.281h-52.433c22.762-31.934 55.066-56.285 91.909-69.281zm-172.991 203.121c0-19.292 12.897-33.84 30-33.84 15.504 0 26.542 14.231 30.356 27.645 1.191 4.343 5.14 7.355 9.644 7.355 4.504 0 8.453-3.012 9.644-7.354.076-.277 7.843-27.646 30.356-27.646 18.169 0 30 15.676 30 33.84 0 11.281-4.69 21.404-15.688 33.853-9.729 11.022-23.802 23.013-40.099 36.896-4.601 3.92-9.311 7.933-14.211 12.163-4.915-4.244-9.64-8.27-14.254-12.201-34.764-29.62-55.748-47.499-55.748-70.711zm83.802 97.425c4.591-3.958 9.043-7.756 13.382-11.453 10.647-9.071 20.375-17.361 28.787-25.28 1.556 6.268 3.287 12.413 5.185 18.387.01.034.034.108.034.111 8.744 27.491 22.635 56.21 42.692 77.236-35.381-11.246-67.175-31.771-90.08-59.001zm291.014-11.452c4.339 3.697 8.791 7.494 13.382 11.453-22.905 27.229-54.699 47.755-90.081 59.002 20.063-21.033 33.951-49.755 42.692-77.235.001-.002.001-.004.002-.006.012-.037.023-.073.034-.11 1.898-5.973 3.628-12.117 5.184-18.384 8.412 7.919 18.14 16.209 28.787 25.28zm27.207-117.485c-7.534-10.964-20.138-22.328-40.023-22.328-2.429 0-4.816.185-7.161.521-1.656-21.12-5.081-41.385-10.221-60.521h58.757c10.728 19.886 17.696 41.212 20.793 63.565-9.997 4.226-17.177 11.574-22.145 18.763z"/></g></svg>