<svg xmlns="http://www.w3.org/2000/svg" viewBox="0 0 151.93 146.93"><defs><style>.cls-1,.cls-2,.cls-3{fill:none;stroke:#1d1d1b;stroke-miterlimit:10;}.cls-1{stroke-width:6px;}.cls-2{stroke-width:3px;}.cls-3{stroke-width:5px;}</style></defs><title>Mecatronica</title><g id="Capa_2" data-name="Capa 2"><g id="Capa_1-2" data-name="Capa 1"><rect class="cls-1" x="3" y="126.58" width="145.93" height="17.36"/><polyline class="cls-1" points="15.86 92.73 15.86 126.58 39.01 126.58 39.01 92.73"/><circle class="cls-1" cx="27.43" cy="80.08" r="8.54"/><circle class="cls-1" cx="27.43" cy="79.64" r="18.31"/><line class="cls-1" x1="22.93" y1="61.33" x2="53.15" y2="25.11"/><line class="cls-1" x1="42.57" y1="69.33" x2="68.58" y2="39.62"/><circle class="cls-1" cx="70.29" cy="21.75" r="8.54"/><circle class="cls-1" cx="70.29" cy="21.31" r="18.31"/><line class="cls-2" x1="36.24" y1="56.68" x2="50.68" y2="40.8"/><line class="cls-2" x1="22.93" y1="113.96" x2="22.93" y2="102.78"/><path class="cls-3" d="M84.15,33.28,120,43.34s-1.29-7.4,7.71-10.06L86.79,13.37"/><path class="cls-3" d="M120,43.34c1.09-4.92,4-9.15,7.71-10.06,5.51-1.34,13.68,4.32,15.11,14.86Z"/><path class="cls-3" d="M134,62.87s3.64,12.54,4.39,12.32.86-2.14.86-2.14l3.54-11.72c3.53-11.73,0-13.19,0-13.19s-12.54-6-18.36-3.86A6.71,6.71,0,0,0,120,52.13v19.4s.21,5.91.53,4.52,5.57-11.47,5.57-11.47l.86-2.14Z"/></g></g></svg>