<svg id="Layer_5" enable-background="new 0 0 64 64" height="512" viewBox="0 0 64 64" width="512" xmlns="http://www.w3.org/2000/svg"><g><g><g><path d="m50 58c1.1 0 2 .9 2 2 0 .55-.22 1.05-.59 1.41-.36.37-.86.59-1.41.59h-36c-1.1 0-2-.9-2-2 0-.55.22-1.05.59-1.41.36-.37.86-.59 1.41-.59h8.47 3.53 12 3.53z" fill="#969faa"/></g><g><path d="m59.21 27.22-4.21-7.22c0 3.31-10.3 6-23 6s-23-2.69-23-6l-4.21 7.22c-.34.58-.65 1.18-.92 1.79.04 0 .09-.01.13-.01h2 4 4 2c1.1 0 2 .9 2 2v2c0 1.1-.9 2-2 2 1.1 0 2 .9 2 2v2c0 1.1-.9 2-2 2 1.1 0 2 .9 2 2v2c0 1.1-.9 2-2 2 1.1 0 2 .9 2 2v2c0 1.1-.9 2-2 2h-6.91l-.01.01c3.59 3.11 8.27 4.99 13.39 4.99h19.06c5.12 0 9.8-1.88 13.39-4.99l-.01-.01h-6.91c-1.1 0-2-.9-2-2v-2c0-1.1.9-2 2-2-1.1 0-2-.9-2-2v-2c0-1.1.9-2 2-2-1.1 0-2-.9-2-2v-2c0-1.1.9-2 2-2-1.1 0-2-.9-2-2v-2c0-1.1.9-2 2-2h2 4 4 2c.04 0 .09.01.13.01-.27-.61-.58-1.21-.92-1.79z" fill="#ccd1d9"/></g><g><path d="m32 20v6c-12.7 0-23-2.69-23-6 0-1.79 3.02-3.4 7.81-4.5 1.29 2.66 4.03 4.5 7.19 4.5z" fill="#e6e9ed"/></g><g><path d="m47.83 15.65c4.41 1.09 7.17 2.64 7.17 4.35 0 3.31-10.3 6-23 6v-6h8c3.18 0 5.92-1.85 7.21-4.53z" fill="#e6e9ed"/></g><g><path d="m14 29h2c1.1 0 2 .9 2 2v2c0 1.1-.9 2-2 2h-2-4-4-2c-.72 0-1.34-.38-1.69-.94h-.01c.29-1.74.82-3.44 1.57-5.05.04 0 .09-.01.13-.01h2 4z" fill="#ffc729"/></g><g><path d="m14 41h2c1.1 0 2 .9 2 2v2c0 1.1-.9 2-2 2h-2-4-5.67l-1.89-5.24c.37-.46.93-.76 1.56-.76h2 4z" fill="#ffc729"/></g><g><path d="m50 41h-2c-1.1 0-2-.9-2-2v-2c0-1.1.9-2 2-2h2 4 4 2c1.02 0 1.84.76 1.97 1.74.01.13.01.26.02.4.01.13.01.26.01.39 0 .35-.01.7-.03 1.05-.01.35-.04.7-.08 1.04v.02c-.27.79-1.01 1.36-1.89 1.36h-2-4z" fill="#ffc729"/></g><g><path d="m54.91 53h-6.91c-1.1 0-2-.9-2-2v-2c0-1.1.9-2 2-2h2 4 5.67c-1.19 2.3-2.81 4.34-4.75 6.01z" fill="#ffc729"/></g><g><path d="m14 47h2c1.1 0 2 .9 2 2v2c0 1.1-.9 2-2 2h-6.91l-.01.01c-.38-.31-.74-.65-1.09-1l-3.66-5.01h5.67z" fill="#fcd770"/></g><g><path d="m14 35h2c1.1 0 2 .9 2 2v2c0 1.1-.9 2-2 2h-2-4-4-2c-.88 0-1.62-.57-1.89-1.36 0-.01 0-.01 0-.02-.04-.34-.07-.69-.08-1.04-.02-.35-.03-.7-.03-1.05 0-.13 0-.26.01-.39.01-.14.01-.27.02-.4.13-.98.95-1.74 1.97-1.74h2 4z" fill="#fcd770"/></g><g><path d="m50 47h-2c-1.1 0-2-.9-2-2v-2c0-1.1.9-2 2-2h2 4 4 2c.63 0 1.19.3 1.56.76-.39 1.85-1.03 3.61-1.89 5.24h-5.67z" fill="#fcd770"/></g><g><path d="m61.29 32.19c.17.62.31 1.24.41 1.87h-.01c-.35.56-.97.94-1.69.94h-2-4-4-2c-1.1 0-2-.9-2-2v-2c0-1.1.9-2 2-2h2 4 4 2c.04 0 .09.01.13.01.48 1.03.87 2.1 1.16 3.18z" fill="#fcd770"/></g><g><path d="m36 52h2c1.1 0 2 .9 2 2v2c0 1.1-.9 2-2 2h-12c-1.1 0-2-.9-2-2v-2c0-1.1.9-2 2-2h2 4z" fill="#ffc729"/></g><g><circle cx="32" cy="42" fill="#fcd770" r="10"/></g><g><path d="m32 20h-8c-3.16 0-5.9-1.84-7.19-4.5-.52-1.06-.81-2.24-.81-3.5h8c4.42 0 8 3.58 8 8z" fill="#b4dd7f"/></g><g><path d="m40 12h8c0 1.24-.28 2.42-.79 3.47-1.29 2.68-4.03 4.53-7.21 4.53h-8c0-4.42 3.58-8 8-8z" fill="#b4dd7f"/></g><g><path d="m30.24 3.76c1.09 1.08 1.76 2.58 1.76 4.24h-4c-1.66 0-3.16-.67-4.24-1.76-1.09-1.08-1.76-2.58-1.76-4.24h4c1.66 0 3.16.67 4.24 1.76z" fill="#a0d468"/></g><g><path d="m38 2h4c0 1.66-.67 3.16-1.76 4.24-1.08 1.09-2.58 1.76-4.24 1.76h-4c0-1.66.67-3.16 1.76-4.24 1.08-1.09 2.58-1.76 4.24-1.76z" fill="#a0d468"/></g></g><g><path d="m31 49h2v-2c1.654 0 3-1.346 3-3s-1.346-3-3-3h-2c-.551 0-1-.448-1-1s.449-1 1-1h3v1h2v-3h-3v-2h-2v2c-1.654 0-3 1.346-3 3s1.346 3 3 3h2c.551 0 1 .448 1 1s-.449 1-1 1h-3v-1h-2v3h3z"/><path d="m63 37.533c0-.21-.009-.418-.018-.627l-.007-.121c-.124-3.538-1.112-7.005-2.899-10.068l-4.099-7.027c-.231-2.016-2.728-3.657-7.43-4.886.29-.884.453-1.825.453-2.804v-1h-9c-2.826 0-5.349 1.312-7 3.356v-5.356h3c3.86 0 7-3.141 7-7v-1h-5c-2.548 0-4.775 1.373-6 3.413-1.225-2.04-3.452-3.413-6-3.413h-5v1c0 3.859 3.14 7 7 7h3v5.356c-1.651-2.044-4.174-3.356-7-3.356h-9v1c0 .979.162 1.919.453 2.803-3.475.911-7.114 2.442-7.42 4.871l-4.109 7.044c-1.773 3.038-2.759 6.473-2.897 9.982v.002l-.009.206c-.009.207-.018.415-.018.625 0 .72.037 1.452.11 2.178l.001.003c.782 7.721 5.683 14.228 12.456 17.33-1.448.212-2.567 1.45-2.567 2.956 0 1.654 1.346 3 3 3h36c1.654 0 3-1.346 3-3 0-1.506-1.119-2.744-2.566-2.956 6.773-3.103 11.674-9.609 12.456-17.33l.001-.003c.072-.726.109-1.458.109-2.178zm-25-34.533h2.899c-.464 2.279-2.484 4-4.899 4h-2.899c.464-2.279 2.484-4 4.899-4zm-10 4c-2.415 0-4.435-1.721-4.899-4h2.899c2.415 0 4.435 1.721 4.899 4zm20 39c-.551 0-1-.448-1-1v-2c0-.552.449-1 1-1h1v2h2v-2h2v2h2v-2h2v2h2v-2h1c.153 0 .3.038.435.107-.329 1.36-.801 2.661-1.4 3.893zm-1-13v-2c0-.552.449-1 1-1h1v2h2v-2h2v2h2v-2.001h2v2.001h2v-2.002h.481c.509 1.214.893 2.476 1.148 3.766-.176.148-.395.236-.629.236h-12c-.551 0-1-.448-1-1zm13.905 6.399c-.158.363-.509.601-.905.601h-12c-.551 0-1-.448-1-1v-2c0-.552.449-1 1-1h1v2h2v-2h2v2h2v-2h2v2h2v-2h1c.495 0 .917.374.975.778l.001.034c.009.24.024.48.024.721 0 .63-.036 1.251-.095 1.866zm-2.401-11.386-10.504-.013c-1.654 0-3 1.346-3 3v2c0 .771.301 1.468.78 2-.48.532-.78 1.229-.78 2v2c0 .771.301 1.468.78 2-.48.532-.78 1.229-.78 2v2c0 .771.301 1.468.78 2-.48.532-.78 1.229-.78 2v2c0 1.654 1.346 3 3 3h3.869c-2.999 1.889-6.536 3-10.335 3h-.717c.111-.314.183-.648.183-1v-2c0-1.562-1.205-2.835-2.732-2.973 2.856-1.989 4.732-5.291 4.732-9.027 0-5.728-4.402-10.442-10-10.949v-4.057c9.625-.108 19.117-1.78 22.063-4.901l3.285 5.631c.055.095.102.194.156.289zm-33.504 27.987v-2c0-.552.449-1 1-1h1v2h2v-2h2v2h2v-2h2v2h2v-2h1c.551 0 1 .448 1 1v2c0 .552-.449 1-1 1h-12c-.551 0-1-.448-1-1zm7-23c4.962 0 9 4.037 9 9s-4.038 9-9 9-9-4.037-9-9 4.038-9 9-9zm22-13c0 1.987-8.154 4.842-21 4.986v-3.986h7c3.261 0 6.114-1.749 7.693-4.352 4.971 1.246 6.307 2.691 6.307 3.352zm-14-7h6.929c-.487 3.388-3.408 6-6.929 6h-6.929c.487-3.388 3.408-6 6.929-6zm-16 0c3.521 0 6.442 2.612 6.929 6h-6.929c-3.521 0-6.442-2.612-6.929-6zm-7.693 3.648c1.579 2.603 4.432 4.352 7.693 4.352h7v3.986c-12.846-.144-21-2.999-21-4.986 0-.874 1.983-2.264 6.307-3.352zm-7.37 5.445c2.947 3.121 12.439 4.792 22.063 4.901v4.057c-5.598.507-10 5.221-10 10.949 0 3.736 1.876 7.038 4.732 9.027-1.527.138-2.732 1.411-2.732 2.973v2c0 .352.072.686.184 1h-.718c-3.799 0-7.336-1.111-10.335-3h3.869c1.654 0 3-1.346 3-3v-2c0-.771-.301-1.468-.78-2 .48-.532.78-1.229.78-2v-2c0-.771-.301-1.468-.78-2 .48-.532.78-1.229.78-2v-2c0-.771-.301-1.468-.78-2 .48-.532.78-1.229.78-2v-2c0-1.654-1.346-3-3-3h-10.497c.051-.091.096-.185.149-.275zm-3.972 23.907c-.599-1.232-1.071-2.534-1.4-3.893.135-.069.282-.107.435-.107h1v2h2v-2h2v2h2v-2h2v2h2v-2h1c.551 0 1 .448 1 1v2c0 .552-.449 1-1 1zm-.452-15.99h.487v1.99h2v-1.992l2-.002v1.994h2v-1.996l2-.002v1.998h2v-1.999l1-.001c.551 0 1 .448 1 1v2c0 .552-.449 1-1 1h-12c-.234 0-.453-.088-.629-.236.254-1.285.636-2.544 1.142-3.754zm-.513 9.99c-.396 0-.747-.238-.905-.601-.059-.615-.095-1.236-.095-1.866 0-.227.015-.452.023-.678.071-.487.487-.855.977-.855h1v2h2v-2h2v2h2v-2h2v2h2v-2h1c.551 0 1 .448 1 1v2c0 .552-.449 1-1 1zm2.08 8h2.92v2h2v-2h2v2h2v-2h1c.551 0 1 .448 1 1v2c0 .552-.449 1-1 1h-6.513c-1.307-1.174-2.455-2.515-3.407-4zm43.92 11c.551 0 1 .448 1 1s-.449 1-1 1h-36c-.551 0-1-.448-1-1s.449-1 1-1h8.467 3.533 12 3.533zm4.513-7h-6.513c-.551 0-1-.448-1-1v-2c0-.552.449-1 1-1h1v2h2v-2h2v2h2v-2h2.92c-.952 1.485-2.1 2.826-3.407 4z"/></g></g></svg>