<svg id="Capa_1" enable-background="new 0 0 512 512" height="512" viewBox="0 0 512 512" width="512" xmlns="http://www.w3.org/2000/svg"><g><path d="m31 450.569v61.431h450v-61.43c0-28.621-11.598-54.969-30.681-74.122 18.807-13.881 30.681-36.208 30.681-60.448v-15h-15c-24.813 0-45-20.187-45-45v-53.554c0-41.468-14.383-81.155-40.656-112.635l12.972-52.322c-47.597-26.266-94.148-37.489-137.316-37.489-43.105 0-89.654 11.187-137.316 37.489l12.534 50.553c-25.994 29.991-40.218 68.013-40.218 107.958v60c0 24.813-20.187 45-45 45h-15v15c0 24.24 11.874 46.567 30.681 60.447-19.083 19.153-30.681 45.502-30.681 74.122zm30 0c0-36.007 25.679-66.999 61.058-73.693l63.689-12.049c3.719-.704 7.26-1.851 10.574-3.379 13.971 18.367 35.869 29.552 59.679 29.552 24.813 0 45 20.187 45 45v46h-240zm270-269.569v45c0 2.523-.13 5.017-.374 7.477-21.956-14.611-47.738-22.477-74.626-22.477s-52.67 7.866-74.626 22.477c-.244-2.46-.374-4.954-.374-7.477v-45zm-75 60c23.794 0 46.477 7.916 64.925 22.473-12.984 22.41-37.215 37.527-64.925 37.527s-51.941-15.117-64.925-37.527c18.448-14.557 41.131-22.473 64.925-22.473zm0 90c11.846 0 23.238-1.974 33.869-5.607l.064.539c.598 5.023 2.007 9.783 4.09 14.15-8.161 12.9-22.407 20.918-38.023 20.918s-29.862-8.018-38.024-20.918c2.084-4.368 3.493-9.128 4.091-14.151l.064-.538c10.631 3.633 22.023 5.607 33.869 5.607zm195 119.57v31.43h-120v-46c0-24.49-11.801-46.272-30.013-59.969 5.512-4.13 10.464-9.026 14.691-14.582 3.314 1.528 6.855 2.675 10.575 3.379l63.688 12.049c35.38 6.693 61.059 37.686 61.059 73.693zm-60-248.124v53.554c0 35.524 24.827 65.36 58.041 73.066-3.811 12.44-12.92 22.862-24.993 28.166-8.816-4.544-18.381-7.912-28.529-9.832l-63.688-12.049c-6.463-1.223-11.329-6.433-12.106-12.965l-1.419-11.923c25.879-19.142 42.694-49.874 42.694-84.463v-58.167l9.796-39.511c13.028 22.3 20.204 48.149 20.204 74.124zm-135-172.446c45.152 0 84.644 15.087 102.525 23.151l-24.26 97.849h-63.265v-30h30v-30h-30v-30h-30v30h-30v30h30v30h-63.265l-24.265-97.871c17.822-8.07 57.164-23.129 102.53-23.129zm-193.041 299.066c33.214-7.706 58.041-37.542 58.041-73.066v-60c0-25.046 6.835-49.167 19.6-70.116l10.4 41.948v58.168c0 34.589 16.815 65.321 42.696 84.463l-1.419 11.922c-.777 6.532-5.643 11.743-12.106 12.966l-63.69 12.049c-10.148 1.92-19.714 5.289-28.529 9.833-12.073-5.305-21.182-15.727-24.993-28.167z"/><path d="m241 421h30v30h-30z"/></g></svg>