<svg id="Capa_1" enable-background="new 0 0 512 512" height="512" viewBox="0 0 512 512" width="512" xmlns="http://www.w3.org/2000/svg"><g><path d="m504.5 316.092c-4.143 0-7.5 3.358-7.5 7.5v37.02c0 1.378-1.121 2.5-2.5 2.5h-361.819c-1.378 0-2.5-1.122-2.5-2.5v-1.568l48.739-8.591c4.311-.904 6.068-1.679 7.882-2.564 11.264 5.204 24.528 4.931 35.625-.954l24.859-13.199c12.949-6.874 19.941-21.203 17.399-35.657l-4.618-26.191.38-.22c5.743-3.315 9.851-8.669 11.566-15.074s.834-13.094-2.482-18.836c-3.132-5.425-8.018-9.215-13.531-11.081l44.167-121.349c4.633-12.719-1.939-26.833-14.693-31.479-2.724-.974-5.531-1.467-8.344-1.467-10.27 0-19.543 6.488-23.078 16.155l-43.236 118.801c-9.647-3.189-20.508-1.035-28.367 6.305l-52.267 48.862v-199.943c0-1.378 1.122-2.5 2.5-2.5h27.73c4.142 0 7.5-3.358 7.5-7.5s-3.358-7.5-7.5-7.5h-27.73c-9.649 0-17.5 7.851-17.5 17.5v213.523l-14.2 2.503c-.935-1.731-2.257-3.239-3.915-4.399-2.804-1.964-6.206-2.717-9.575-2.123l-81.293 14.334c-4.079.719-6.803 4.609-6.084 8.688s4.609 6.803 8.688 6.084l79.14-13.955 12.244 69.437c.003.02.004.039.007.059.004.022.01.043.015.065l2.269 12.869-79.14 13.955c-4.079.719-6.803 4.609-6.084 8.688.642 3.639 3.806 6.199 7.377 6.199.432 0 .871-.038 1.311-.115l81.293-14.334c6.832-1.205 11.437-7.648 10.442-14.467 3.061 5.104 8.632 8.539 15.004 8.539h29.25v81.326c0 4.142 3.358 7.5 7.5 7.5s7.5-3.358 7.5-7.5v-38.478h273.316v38.478c0 4.142 3.357 7.5 7.5 7.5s7.5-3.358 7.5-7.5v-81.326h29.253c9.649 0 17.5-7.851 17.5-17.5v-37.02c0-4.142-3.357-7.5-7.5-7.5zm-254.586-15.411c1.412 8.03-2.47 15.989-9.66 19.807l-24.856 13.198c-4.968 2.635-10.632 3.464-16.036 2.532 3.571-6.075 4.862-13.144 3.625-20.159l-1.795-10.179 45.052-26.01zm18.23-207.003c1.377-3.766 4.988-6.295 8.986-6.295 1.088 0 2.196.199 3.253.577 4.939 1.799 7.492 7.289 5.689 12.238l-46.032 126.471c-1.509.513-2.99 1.177-4.421 2.003l-21.022 12.137zm-75.455 130.926c3.536-3.302 8.52-4.36 12.975-3.109l-11.276 30.982-11.631 6.715c-3.587 2.071-4.816 6.658-2.745 10.245 2.071 3.588 6.658 4.816 10.245 2.745l52.863-30.52c4.692-2.708 10.713-1.096 13.422 3.597 1.313 2.273 1.662 4.921.983 7.455s-2.306 4.653-4.579 5.965l-63.802 36.835c-2.73 1.576-4.184 4.692-3.636 7.797l2.707 15.352c.682 3.865-.183 7.764-2.433 10.978-.939 1.342-4.018 5.073-9.471 6.039l-62.643 11.043-9.429-53.477 16.324-2.878c1.431-.252 2.758-.915 3.82-1.908zm257.558 181.356h-273.316v-27.848h273.316z"/><path d="m494.5 45.066h-299.089c-4.142 0-7.5 3.358-7.5 7.5s3.358 7.5 7.5 7.5h299.089c1.379 0 2.5 1.122 2.5 2.5v226.026c0 4.142 3.357 7.5 7.5 7.5s7.5-3.358 7.5-7.5v-226.027c0-9.649-7.851-17.499-17.5-17.499z"/></g></svg>