<svg id="Capa_1" enable-background="new 0 0 512 512" height="512" viewBox="0 0 512 512" width="512" xmlns="http://www.w3.org/2000/svg"><g><path d="m466.862 164.436c-4.138 0-7.493 3.355-7.493 7.493v48.332c0 4.138 3.355 7.493 7.493 7.493s7.493-3.355 7.493-7.493v-48.332c0-4.138-3.355-7.493-7.493-7.493z"/><path d="m244.532 350.617h-217.057c-6.886 0-12.489-5.602-12.489-12.489v-198.607c0-4.138-3.355-7.493-7.493-7.493s-7.493 3.355-7.493 7.493v198.608c0 15.15 12.325 27.475 27.475 27.475h217.057c4.138 0 7.493-3.355 7.493-7.493 0-4.139-3.355-7.494-7.493-7.494z"/><path d="m7.493 113.453c4.138 0 7.493-3.355 7.493-7.493v-51.897c0-6.886 5.602-12.489 12.489-12.489h244.062c4.138 0 7.493-3.355 7.493-7.493s-3.355-7.493-7.493-7.493h-244.062c-15.15 0-27.475 12.325-27.475 27.475v51.898c0 4.137 3.355 7.492 7.493 7.492z"/><path d="m484.525 26.588h-177.251c-4.138 0-7.493 3.355-7.493 7.493s3.355 7.493 7.493 7.493h114.449v235.132c-4.043.622-7.766 2.349-10.779 4.942-3.821-3.289-8.774-5.213-14.088-5.213h-7.24c-2.3 0-4.515.361-6.596 1.03v-56.046c0-11.962-9.732-21.693-21.694-21.693h-7.508c-9.287 0-17.18 6.011-20.041 14.337h-79.655c-4.138 0-7.493 3.355-7.493 7.493s3.355 7.493 7.493 7.493h78.486l-.023 24.603h-78.463c-4.138 0-7.493 3.355-7.493 7.493s3.355 7.493 7.493 7.493h78.449l-.023 24.603h-78.426c-4.138 0-7.493 3.355-7.493 7.493s3.355 7.493 7.493 7.493h78.412l-.033 35.607s-7.267-10.322-7.345-10.421c-11.955-15.287-34.118-17.998-49.405-6.043-.037.029-.073.058-.108.086-7 5.686-8.423 14.905-3.309 21.445l38.222 48.875c1.078 1.378 1.682 3.1 1.702 4.85.207 18.463 12.528 34.055 29.961 37.916l5.12 1.135c.378.083.642.412.642.799v28.449c0 7.988 6.499 14.487 14.487 14.487h98.915c7.988 0 14.487-6.499 14.487-14.487v-49.073c0-.404.15-.798.366-.957 8.166-6.042 13.041-15.704 13.041-25.847v-29.864c12.891-2.257 22.723-13.526 22.723-27.055v-284.066c0-15.15-12.325-27.475-27.475-27.475zm-17.204 382.26c-4.031 2.983-6.438 7.844-6.438 13.004v48.574h-97.916v-27.95c0-7.47-5.094-13.816-12.387-15.431l-5.12-1.134c-10.597-2.347-18.088-11.992-18.216-23.453-.056-5.019-1.79-9.961-4.882-13.914l-38.015-48.611c.107-.197.32-.49.702-.808 4.241-3.289 9.506-4.742 14.839-4.09 5.3.648 10.037 3.3 13.357 7.473l17.822 25.326c1.688 2.397 4.447 3.828 7.379 3.828 4.972 0 9.021-4.045 9.026-9.018l.133-141.716c0-3.428 2.788-6.216 6.216-6.216h7.508c3.698 0 6.707 3.008 6.707 6.707v76.598c0 4.138 3.355 7.493 7.493 7.493s7.493-3.355 7.493-7.493c0-3.637 2.959-6.596 6.596-6.596h7.24c2.867 0 5.388 1.828 6.275 4.55 1.105 3.393 4.245 5.675 7.812 5.676h.002c3.566 0 6.705-2.279 7.815-5.677.886-2.721 3.407-4.549 6.274-4.549h7.24c3.636 0 6.595 2.958 6.595 6.596v4.966c0 3.844 2.617 7.13 6.364 7.99 3.749.861 7.531-.954 9.206-4.41l.072-.149c1.697-3.501 2.221-4.583 6.08-4.739h7.1c3.637 0 6.596 2.959 6.596 6.596l.001 86.777c-.001 5.493-2.54 10.524-6.969 13.8zm29.693-70.719c0 5.205-3.203 9.671-7.739 11.545l-.001-41.403c0-11.9-9.682-21.582-21.582-21.582h-7.24c-.087 0-.175.001-.261.004-3.417.12-6.224.802-8.542 1.819-2.89-5.867-8.371-10.234-14.939-11.612v-235.326h47.815c6.886 0 12.489 5.602 12.489 12.489z"/><path d="m53.703 93.783c-3.131.976-5.263 3.874-5.263 7.154v66.636c0 4.138 3.355 7.493 7.493 7.493s7.493-3.355 7.493-7.493v-42.599l31.399 45.467c2.235 3.229 5.95 4.607 9.466 3.509 3.594-1.123 5.917-4.509 5.916-8.7l-.624-64.511c-.04-4.113-3.387-7.42-7.491-7.42-.024 0-.049 0-.074 0-4.138.04-7.46 3.427-7.42 7.565l.421 43.465-32.92-47.67c-1.864-2.699-5.266-3.87-8.396-2.896z"/><path d="m184.397 108.914c4.138 0 7.493-3.355 7.493-7.493s-3.355-7.493-7.493-7.493h-27.874c-4.138 0-7.493 3.355-7.493 7.493v66.152c0 4.138 3.355 7.493 7.493 7.493h27.874c4.138 0 7.493-3.355 7.493-7.493s-3.355-7.493-7.493-7.493h-20.38v-18.09h18.325c4.138 0 7.493-3.355 7.493-7.493s-3.355-7.493-7.493-7.493h-18.325v-18.089h20.38z"/><path d="m366.289 160.384c-6.872 0-13.494-2.78-17.713-7.435-2.779-3.066-7.518-3.3-10.584-.52-3.067 2.779-3.299 7.518-.52 10.584 7.013 7.738 17.786 12.357 28.817 12.357 13.656 0 25.118-8.683 27.254-20.645 1.601-8.969-2.513-20.702-18.864-26.732-8.335-3.074-16.084-6.425-18.32-7.405-1.579-1.227-2.337-3.138-2.04-5.204.192-1.34 1.153-4.612 5.907-6.044 9.866-2.974 18.929 4.219 19.158 4.405 3.168 2.631 7.87 2.213 10.523-.943 2.663-3.168 2.253-7.894-.915-10.557-.616-.518-15.287-12.615-33.089-7.253-8.895 2.68-15.186 9.678-16.419 18.264-1.153 8.036 2.328 15.764 9.087 20.171.331.216.679.405 1.04.566.385.172 9.554 4.253 19.882 8.062 3.128 1.154 10.296 4.442 9.297 10.038-.728 4.074-5.603 8.291-12.501 8.291z"/><path d="m261.979 93.955c-2.71.834-4.603 3.066-5.135 5.66l-13.105 42.34-8.366-42.294c-.803-4.06-4.746-6.7-8.805-5.896-4.059.803-6.699 4.745-5.896 8.805l13.007 65.758c1.633 8.802 14.958 9.351 17.355.742l13.154-42.497 13.095 42.507c2.41 8.613 15.73 8.034 17.357-.763l13.059-65.617c.807-4.059-1.828-8.004-5.887-8.812-4.061-.806-8.003 1.827-8.812 5.887l-8.394 42.175-13.26-43.041c-1.219-3.954-5.412-6.171-9.367-4.954z"/><path d="m195.435 214.063h-139.503c-4.138 0-7.493 3.355-7.493 7.493s3.355 7.493 7.493 7.493h139.503c4.138 0 7.493-3.355 7.493-7.493s-3.354-7.493-7.493-7.493z"/><path d="m195.435 253.652h-139.503c-4.138 0-7.493 3.355-7.493 7.493s3.355 7.493 7.493 7.493h139.503c4.138 0 7.493-3.355 7.493-7.493s-3.354-7.493-7.493-7.493z"/><path d="m195.435 293.241h-139.503c-4.138 0-7.493 3.355-7.493 7.493s3.355 7.493 7.493 7.493h139.503c4.138 0 7.493-3.355 7.493-7.493s-3.354-7.493-7.493-7.493z"/></g></svg>