<?xml version="1.0"?>
<svg xmlns="http://www.w3.org/2000/svg" width="512" height="512" viewBox="0 0 128 128"><g><path d="M127.75,85.815a1.747,1.747,0,0,0-1.5-.85h-3.885v-19.3a1.746,1.746,0,0,0-.513-1.237l-3.976-3.977a7.617,7.617,0,0,0-1.088-9.374l-5.1-5.1a7.609,7.609,0,0,0-10.761,10.76l5.1,5.1a7.6,7.6,0,0,0,9.375,1.088l3.463,3.464V84.965H103.626V76.193A17.085,17.085,0,0,0,91.077,59.752a31.74,31.74,0,0,0-5.894-.855c-1.707-.285-3.689.021-7.8-.9a3.563,3.563,0,0,1-1.175-.717h0c-.06-.06-.112-.129-.167-.2C89.352,54.23,93.2,47.148,93.361,46.833a1.749,1.749,0,0,0-.254-1.984l-.362-.4a18.622,18.622,0,0,1-4.81-12.495l.051-13.827A18.175,18.175,0,0,0,69.807,0H58.022A18.149,18.149,0,0,0,39.894,18.127v14a18.641,18.641,0,0,1-4.621,12.288l-.4.456a1.75,1.75,0,0,0-.235,1.963c.164.315,4.006,7.391,17.3,10.248-.6.384-.416,1.008-3.453,1.312-.411.037-.961.085-1.7.155-.614.048-1.23.088-1.845.128a39.959,39.959,0,0,0-8.022,1.077,17.084,17.084,0,0,0-12.549,16.44v8.772H8.963V66.391l3.464-3.464A7.6,7.6,0,0,0,21.8,61.839l5.1-5.1a7.609,7.609,0,1,0-10.761-10.76l-5.105,5.1a7.617,7.617,0,0,0-1.088,9.374L5.976,64.429a1.75,1.75,0,0,0-.513,1.237v19.3H1.75A1.749,1.749,0,0,0,.206,87.538l10.007,18.785a1.751,1.751,0,0,0,1.545.927h8.11l3.73,19.331A1.749,1.749,0,0,0,25.316,128h77.369a1.75,1.75,0,0,0,1.718-1.419l3.729-19.331h8.11a1.751,1.751,0,0,0,1.545-.927L127.8,87.538A1.752,1.752,0,0,0,127.75,85.815ZM108.5,59.364l-5.1-5.1a4.11,4.11,0,0,1,5.812-5.812l5.1,5.1a4.109,4.109,0,1,1-5.811,5.811ZM13.515,53.553l5.105-5.1a4.109,4.109,0,1,1,5.811,5.812l-5.1,5.1a4.109,4.109,0,1,1-5.812-5.811ZM84.9,62.386a28.48,28.48,0,0,1,5.252.743,13.575,13.575,0,0,1,9.973,13.064v8.772H81.075l2.812-1.813a1.748,1.748,0,0,0,.673-2.127L83.338,78l4.136-1.8a1.75,1.75,0,0,0,.914-2.287l-4.93-11.653C84,62.311,83.468,62.266,84.9,62.386ZM47.056,81l1.319-3.264a1.752,1.752,0,0,0-.925-2.261l-4.111-1.785L47,65.03l2.894,7.488,4.742,12.447H53.211Zm2.9-19.232a7.488,7.488,0,0,0,3.055-1.043l6.655,4.5.745.5-7.913,3.789-2.935-7.7C49.652,61.8,49.608,61.806,49.951,61.763Zm-4.723-32.5a17.215,17.215,0,0,0,.328,2.548l.664,3.03a2.889,2.889,0,0,1-.992-5.578Zm4.777,6.5-1.028-4.7a13.36,13.36,0,0,1-.3-2.823V24.285a45.66,45.66,0,0,0,6.463.74,3.407,3.407,0,1,0,2.778.036,45.047,45.047,0,0,0,21.411-5.84v4.24c0,5.783-.114,6.729-.3,7.6L78,35.761l-.014.067,0,.025c-.126.586-.245,1.179-.363,1.777a29.485,29.485,0,0,1-1.379,5.284,13.174,13.174,0,0,1-4.219,5.521,1.74,1.74,0,0,0-.323.234,13.237,13.237,0,0,1-15.383,0,1.731,1.731,0,0,0-.326-.237,13.164,13.164,0,0,1-4.217-5.517,29.652,29.652,0,0,1-1.381-5.293C50.262,37,50.139,36.374,50.005,35.76Zm32.734-6.442a2.883,2.883,0,0,1-.954,5.5l.66-3.018A13.881,13.881,0,0,0,82.739,29.318ZM77.276,61.6c.449.091.107.028,1.005.177l-2.947,7.735-7.911-3.788L70.9,63.369l4-2.706A6.966,6.966,0,0,0,77.276,61.6Zm-21.7,10.316,3.484,3.221L57.09,81.576,53.744,72.8Zm3.4-1.626,4.94-2.365,4.347,2.081.592.284-2.767,2.558H61.742Zm13.276,1.626,1.833.878-3.251,8.531L68.9,75.014ZM64,54.634a16.721,16.721,0,0,0,7.479-1.761l.4,3.159,0,.021v.005l0,.014a6.21,6.21,0,0,0,.621,1.984l-8.6,5.816-8.478-5.734a6.386,6.386,0,0,0,.668-2.053c0-.009.006-.018.007-.027V56.05l0-.017.4-3.16A16.718,16.718,0,0,0,64,54.634ZM62.352,76.349h3.3l2.638,8.616H59.712Zm15.572-3.8,0,0,2.9-7.513,3.66,8.654-4.11,1.785a1.751,1.751,0,0,0-.925,2.261L80.773,81l-6.157,3.97H73.192Zm11.661-26.4c-1.473,1.8-5.571,5.691-14.47,7.559l-.38-2.97a16.69,16.69,0,0,0,4.742-6.5,32.125,32.125,0,0,0,1.568-5.913c.164.013.329.026.494.026A6.362,6.362,0,0,0,85.1,37.261,22.1,22.1,0,0,0,89.585,46.147ZM58.022,3.5H69.807A14.669,14.669,0,0,1,84.486,18.12l-.03,8.141a6.329,6.329,0,0,0-1.637-.582c0-.658.007-1.387.007-2.218V16.126a1.75,1.75,0,0,0-2.669-1.489l-1.126.694a41.663,41.663,0,0,1-31.7,5.091,1.749,1.749,0,0,0-2.155,1.7v3.53a6.352,6.352,0,0,0-1.78.6V18.127A14.645,14.645,0,0,1,58.022,3.5ZM38.4,46.134a22.124,22.124,0,0,0,4.368-8.852,6.3,6.3,0,0,0,4.183,1.025,32.234,32.234,0,0,0,1.57,5.927,16.684,16.684,0,0,0,4.742,6.5l-.379,2.969C43.954,51.831,39.859,47.917,38.4,46.134ZM27.874,76.193a13.575,13.575,0,0,1,9.972-13.064,33.168,33.168,0,0,1,6.541-.907l-4.947,11.7a1.751,1.751,0,0,0,.915,2.287L44.491,78l-1.223,3.024a1.751,1.751,0,0,0,.674,2.127l2.811,1.813H27.874Zm5.249,39.057H94.877L93.092,124.5l-58.184,0Zm68.117,9.25H96.656l2.06-10.668A1.751,1.751,0,0,0,97,111.75H31a1.75,1.75,0,0,0-1.718,2.081L31.344,124.5H26.761l-3.328-17.25h81.134Zm13.951-20.75H12.809L4.665,88.465h118.67Z"/><path d="M64.17,37.555h1.336a1.75,1.75,0,0,0,0-3.5h-.634l.379-2.5a1.75,1.75,0,0,0-3.461-.526l-.484,3.2a2.9,2.9,0,0,0,2.864,3.33Z"/><path d="M71.507,31.537a3.4,3.4,0,1,0-3.4-3.4A3.4,3.4,0,0,0,71.507,31.537Z"/><path d="M63.915,44.447a7.636,7.636,0,0,0,5.906-2.484,1.75,1.75,0,0,0-2.7-2.227,4.848,4.848,0,0,1-6.41,0,1.75,1.75,0,0,0-2.7,2.223A7.629,7.629,0,0,0,63.915,44.447Z"/></g></svg>
