<svg id="Capa_1" enable-background="new 0 0 513 513" height="512" viewBox="0 0 513 513" width="512" xmlns="http://www.w3.org/2000/svg"><g id="XMLID_940_"><path id="XMLID_946_" d="m18.5 513h216v-513h-216zm30-483h156v453h-156z"/><path id="XMLID_952_" d="m126.5 50.772c-23.894 0-43.333 19.439-43.333 43.333s19.439 43.333 43.333 43.333 43.333-19.438 43.333-43.333-19.439-43.333-43.333-43.333zm0 56.667c-7.352 0-13.333-5.981-13.333-13.333s5.981-13.333 13.333-13.333 13.333 5.981 13.333 13.333-5.981 13.333-13.333 13.333z"/><path id="XMLID_988_" d="m126.5 158.664c-23.894 0-43.333 19.439-43.333 43.333s19.439 43.333 43.333 43.333 43.333-19.439 43.333-43.333-19.439-43.333-43.333-43.333zm0 56.667c-7.352 0-13.333-5.981-13.333-13.333s5.981-13.333 13.333-13.333 13.333 5.981 13.333 13.333-5.981 13.333-13.333 13.333z"/><path id="XMLID_991_" d="m126.5 266.555c-23.894 0-43.333 19.439-43.333 43.333s19.439 43.333 43.333 43.333 43.333-19.439 43.333-43.333-19.439-43.333-43.333-43.333zm0 56.667c-7.352 0-13.333-5.981-13.333-13.333s5.981-13.333 13.333-13.333 13.333 5.981 13.333 13.333-5.981 13.333-13.333 13.333z"/><path id="XMLID_994_" d="m126.5 374.447c-23.894 0-43.333 19.439-43.333 43.333s19.439 43.333 43.333 43.333 43.333-19.439 43.333-43.333-19.439-43.333-43.333-43.333zm0 56.666c-7.352 0-13.333-5.981-13.333-13.333s5.981-13.333 13.333-13.333 13.333 5.981 13.333 13.333-5.981 13.333-13.333 13.333z"/><path id="XMLID_1011_" d="m274.5 148.987v236.013h92v-236.013l-46-79.811zm30 68.01h32v77.892h-32zm32 138.003h-32v-30.111h32zm0-168.003h-32v-29.984l16-27.76 16 27.76z"/><path id="XMLID_1169_" d="m448.5 69.176-46 79.811v236.013h92v-236.013zm-16 147.821h32v77.892h-32zm32 138.003h-32v-30.111h32zm-32-168.003v-29.984l16-27.76 16 27.76v29.984z"/></g></svg>