<?xml version="1.0"?>
<svg xmlns="http://www.w3.org/2000/svg" viewBox="0 0 64 64" width="512" height="512"><g id="satellite-satellite_dish-communictionn-house-home" data-name="satellite-satellite dish-communictionn-house-home"><path d="M25.02,40.97a17.942,17.942,0,0,0,12.73-5.26,1.008,1.008,0,0,0,0-1.42L26.43,22.98l1.55-1.55a4.054,4.054,0,1,0-1.41-1.41l-1.55,1.55L13.71,10.25a1.008,1.008,0,0,0-1.42,0A18.019,18.019,0,0,0,8.02,28.82,1.1,1.1,0,0,0,8,29V56H3a1,1,0,0,0-1,1v4a1,1,0,0,0,1,1H29a1,1,0,0,0,1-1V57a1,1,0,0,0-1-1H24V40.92C24.34,40.94,24.68,40.97,25.02,40.97ZM30,16a2,2,0,1,1-2,2A2.006,2.006,0,0,1,30,16ZM28,58v2H4V58ZM12.29,35.71A17.861,17.861,0,0,0,22,40.7V56H10V32.9A18.9,18.9,0,0,0,12.29,35.71Zm-2.22-7.07A1.014,1.014,0,0,1,11,28H21a1,1,0,0,1,1,1v9.67A15.9,15.9,0,0,1,10.07,28.64ZM21,26H11a2.986,2.986,0,0,0-1.59.46,16.053,16.053,0,0,1,3.61-14.07L35.61,34.98A15.982,15.982,0,0,1,24,38.92V29A3.009,3.009,0,0,0,21,26Z"/><path d="M44,18h2A16.019,16.019,0,0,0,30,2V4A14.015,14.015,0,0,1,44,18Z"/><path d="M40,18h2A12.013,12.013,0,0,0,30,6V8A10.011,10.011,0,0,1,40,18Z"/><path d="M36,18h2a8.009,8.009,0,0,0-8-8v2A6.006,6.006,0,0,1,36,18Z"/><path d="M60.66,45.94A.974.974,0,0,0,61,46a1,1,0,0,0,1-1V41a.992.992,0,0,0-.66-.94L59,39.21V34a1,1,0,0,0-1-1H54a1,1,0,0,0-1,1v3.03l-2.66-.97a.993.993,0,0,0-.68,0l-11,4A.992.992,0,0,0,38,41v4a1,1,0,0,0,.43.82.985.985,0,0,0,.91.12l1.66-.6V56H39a1,1,0,0,0-1,1v4a1,1,0,0,0,1,1H61a1,1,0,0,0,1-1V57a1,1,0,0,0-1-1H59V45.34ZM55,35h2v3.48l-2-.73Zm5,23v2H40V58ZM54,48H46a1,1,0,0,0-1,1v7H43V44.61l7-2.55,7,2.55V56H55V49A1,1,0,0,0,54,48Zm-1,2v6H51V50Zm-4,0v6H47V50Zm1.34-9.94a.993.993,0,0,0-.68,0L40,43.57V41.7l10-3.64L60,41.7v1.87Z"/><rect x="49" y="44" width="2" height="2"/><rect x="17" y="31" width="2" height="2"/></g></svg>
